<svg width="28" height="28" viewBox="0 0 28 28" fill="none" xmlns="http://www.w3.org/2000/svg">
<path d="M28 8.41221H24.0394C21.2954 6.54461 17.9382 5.59961 14 5.59961C10.0618 5.59961 6.7032 6.54461 3.9606 8.41221H0C0.5992 9.00021 1.1578 10.2882 1.3902 11.2682C0.492547 12.4632 0.00493786 13.9162 0 15.4108C0 19.2706 3.1402 22.4108 7 22.4108C8.7852 22.4077 10.5009 21.7185 11.7922 20.4858L14 23.7996L16.2078 20.4872C17.4989 21.7204 19.2146 22.4101 21 22.4136C24.8598 22.4136 28 19.2734 28 15.4136C28 13.8568 27.4722 12.4316 26.6098 11.2696C26.8422 10.2896 27.4008 9.00161 28 8.41361V8.41221ZM7 20.1722C4.375 20.1722 2.24 18.0372 2.24 15.4122C2.24 12.7872 4.375 10.6522 7 10.6522C9.625 10.6522 11.76 12.7872 11.76 15.4122C11.76 18.0372 9.625 20.1722 7 20.1722ZM14 15.4122C13.9976 13.7973 13.4378 12.2327 12.4152 10.9828C11.3926 9.73291 9.96987 8.87435 8.3874 8.55221C10.073 7.98521 11.942 7.69961 14 7.69961C16.058 7.69961 17.927 7.98521 19.6126 8.55361C18.0306 8.87566 16.6082 9.7338 15.5857 10.9831C14.5631 12.2324 14.003 13.7978 14 15.4122ZM21 20.1722C18.375 20.1722 16.24 18.0372 16.24 15.4122C16.24 12.7872 18.375 10.6522 21 10.6522C23.625 10.6522 25.76 12.7872 25.76 15.4122C25.76 18.0372 23.625 20.1722 21 20.1722ZM7 12.4036C5.341 12.4036 3.99 13.7532 3.99 15.4136C3.99 17.074 5.341 18.4236 7 18.4236C8.659 18.4236 10.01 17.074 10.01 15.4136C10.01 13.7532 8.659 12.4036 7 12.4036ZM7 16.311C6.75865 16.311 6.52719 16.2151 6.35653 16.0445C6.18587 15.8738 6.09 15.6424 6.09 15.401C6.09 15.1597 6.18587 14.9282 6.35653 14.7575C6.52719 14.5869 6.75865 14.491 7 14.491C7.24135 14.491 7.47281 14.5869 7.64347 14.7575C7.81413 14.9282 7.91 15.1597 7.91 15.401C7.91 15.6424 7.81413 15.8738 7.64347 16.0445C7.47281 16.2151 7.24135 16.311 7 16.311ZM21 12.4036C19.341 12.4036 17.99 13.7532 17.99 15.4136C17.99 17.074 19.341 18.4236 21 18.4236C22.659 18.4236 24.01 17.074 24.01 15.4136C24.01 13.7532 22.659 12.4036 21 12.4036ZM21 16.311C20.7587 16.311 20.5272 16.2151 20.3565 16.0445C20.1859 15.8738 20.09 15.6424 20.09 15.401C20.09 15.1597 20.1859 14.9282 20.3565 14.7575C20.5272 14.5869 20.7587 14.491 21 14.491C21.2413 14.491 21.4728 14.5869 21.6435 14.7575C21.8141 14.9282 21.91 15.1597 21.91 15.401C21.91 15.6424 21.8141 15.8738 21.6435 16.0445C21.4728 16.2151 21.2413 16.311 21 16.311Z" fill="#363636"/>
</svg>
