<svg width="8" height="8" viewBox="0 0 8 8" fill="none" xmlns="http://www.w3.org/2000/svg">
<path d="M6.17292 7.64671H1.4738C0.824445 7.64671 0.293945 7.11622 0.293945 6.46686V1.76774C0.293945 1.11839 0.824445 0.587891 1.4738 0.587891H6.17292C6.82227 0.587891 7.35277 1.11839 7.35277 1.76774V6.46686C7.35277 7.11912 6.82517 7.64671 6.17292 7.64671Z" fill="white"/>
<path d="M3.82451 5.93027C3.34039 5.93027 2.88526 5.74184 2.54319 5.39977C2.20112 5.0577 2.0127 4.60257 2.0127 4.11845C2.0127 3.63434 2.20112 3.17921 2.54319 2.83714C2.88526 2.49507 3.34039 2.30664 3.82451 2.30664C4.30862 2.30664 4.76375 2.49507 5.10582 2.83714C5.44789 3.17921 5.63632 3.63434 5.63632 4.11845C5.63632 4.60257 5.44789 5.0577 5.10582 5.39977C4.76085 5.74184 4.30862 5.93027 3.82451 5.93027ZM3.82451 2.69219C3.03891 2.69219 2.39825 3.32995 2.39825 4.11845C2.39825 4.90406 3.03601 5.54471 3.82451 5.54471C4.61011 5.54471 5.25077 4.90695 5.25077 4.11845C5.24787 3.33285 4.61011 2.69219 3.82451 2.69219Z" fill="#2A66AE"/>
<path d="M5.98948 2.24751C6.18161 2.24751 6.33736 2.09176 6.33736 1.89963C6.33736 1.70751 6.18161 1.55176 5.98948 1.55176C5.79735 1.55176 5.6416 1.70751 5.6416 1.89963C5.6416 2.09176 5.79735 2.24751 5.98948 2.24751Z" fill="#2A66AE"/>
</svg>
