<svg width="79" height="79" viewBox="0 0 79 79" fill="none" xmlns="http://www.w3.org/2000/svg">
<g filter="url(#filter0_b_39_2549)">
<path d="M31.2705 30.695V48.3054C31.2705 49.5672 31.8465 50.5272 32.9986 51.1856C34.1507 51.8439 35.2754 51.7891 36.3726 51.021L50.033 42.2981C51.0754 41.6397 51.5966 40.7071 51.5966 39.5002C51.5966 38.2932 51.0754 37.3606 50.033 36.7022L36.3726 27.9793C35.2754 27.2113 34.1507 27.1564 32.9986 27.8147C31.8465 28.4731 31.2705 29.4331 31.2705 30.695ZM39.4997 72.4168C34.9462 72.4168 30.667 71.5522 26.6622 69.823C22.6573 68.096 19.1736 65.7512 16.2111 62.7887C13.2486 59.8262 10.9039 56.3425 9.17684 52.3377C7.44762 48.3328 6.58301 44.0536 6.58301 39.5002C6.58301 34.9467 7.44762 30.6675 9.17684 26.6627C10.9039 22.6578 13.2486 19.1741 16.2111 16.2116C19.1736 13.2491 22.6573 10.9033 26.6622 9.17404C30.667 7.44701 34.9462 6.5835 39.4997 6.5835C44.0531 6.5835 48.3323 7.44701 52.3372 9.17404C56.342 10.9033 59.8257 13.2491 62.7882 16.2116C65.7507 19.1741 68.0955 22.6578 69.8225 26.6627C71.5517 30.6675 72.4163 34.9467 72.4163 39.5002C72.4163 44.0536 71.5517 48.3328 69.8225 52.3377C68.0955 56.3425 65.7507 59.8262 62.7882 62.7887C59.8257 65.7512 56.342 68.096 52.3372 69.823C48.3323 71.5522 44.0531 72.4168 39.4997 72.4168Z" fill="#E6E6E6"/>
</g>
<defs>
<filter id="filter0_b_39_2549" x="-120.417" y="-120.417" width="319.833" height="319.833" filterUnits="userSpaceOnUse" color-interpolation-filters="sRGB">
<feFlood flood-opacity="0" result="BackgroundImageFix"/>
<feGaussianBlur in="BackgroundImageFix" stdDeviation="63.5"/>
<feComposite in2="SourceAlpha" operator="in" result="effect1_backgroundBlur_39_2549"/>
<feBlend mode="normal" in="SourceGraphic" in2="effect1_backgroundBlur_39_2549" result="shape"/>
</filter>
</defs>
</svg>
