<svg width="24" height="24" viewBox="0 0 24 24" fill="none" xmlns="http://www.w3.org/2000/svg">
<path d="M15 18.54C17.13 18.21 19.5 18 22 18V22H5C5 21.35 8.2 19.86 13 18.9V12.4C12.16 12.65 11.45 13.21 11 13.95C10.6898 13.4311 10.2504 13.0015 9.72458 12.7032C9.19875 12.4049 8.60455 12.248 8 12.248C7.39545 12.248 6.80125 12.4049 6.27542 12.7032C5.7496 13.0015 5.31015 13.4311 5 13.95C5.03 10.37 8.5 7.43 13 7.04V7C13 6.73478 13.1054 6.48043 13.2929 6.29289C13.4804 6.10536 13.7348 6 14 6C14.2652 6 14.5196 6.10536 14.7071 6.29289C14.8946 6.48043 15 6.73478 15 7V7.04C19.5 7.43 22.96 10.37 23 13.95C22.6898 13.4311 22.2504 13.0015 21.7246 12.7032C21.1988 12.4049 20.6045 12.248 20 12.248C19.3955 12.248 18.8012 12.4049 18.2754 12.7032C17.7496 13.0015 17.3102 13.4311 17 13.95C16.55 13.21 15.84 12.65 15 12.39V18.54ZM7 2C7 2.65661 6.87067 3.30679 6.6194 3.91342C6.36812 4.52005 5.99983 5.07124 5.53553 5.53553C5.07124 5.99983 4.52005 6.36812 3.91342 6.6194C3.30679 6.87067 2.65661 7 2 7V2H7Z" fill="#838383"/>
</svg>
