<svg width="18" height="18" viewBox="0 0 18 18" fill="none" xmlns="http://www.w3.org/2000/svg">
<path fill-rule="evenodd" clip-rule="evenodd" d="M12.2614 17.2239C9.74336 17.2239 6.78057 15.8873 4.29252 13.4009C0.322652 9.43019 -0.713618 4.24717 1.93296 1.6006C2.71475 0.81964 3.66592 0.344057 4.76309 0.185529L5.3972 0.09375L7.7309 5.53542L5.3972 6.70185C5.93787 7.72644 6.7572 8.78523 7.83269 9.86072C8.85811 10.8861 9.91608 11.6996 10.9782 12.277L12.0746 10.1302L17.4837 10.9028L17.5154 11.5928C17.5947 13.3108 17.1024 14.7517 16.092 15.7613C15.1041 16.7492 13.7616 17.2239 12.2614 17.2239ZM4.39062 1.98242C3.91086 2.14345 3.482 2.41128 3.11239 2.78173C1.19337 4.69992 2.27469 9.02272 5.47194 12.2208C8.67086 15.4189 12.9928 16.4977 14.9118 14.5804C15.551 13.9412 15.7812 13.0985 15.838 12.3526L13.0287 11.9513L12.4897 13.031C12.2861 13.4381 11.9349 13.7377 11.5002 13.8737C11.0655 14.0113 10.5832 13.9621 10.1794 13.7427C8.97791 13.0894 7.79062 12.1799 6.65172 11.041C5.45859 9.84789 4.54164 8.6556 3.92505 7.49668C3.71062 7.09202 3.66974 6.62978 3.80824 6.19425C3.94674 5.76122 4.24627 5.41162 4.65261 5.20804L5.5754 4.74664L4.39062 1.98242Z" fill="white"/>
</svg>
