<svg width="8" height="7" viewBox="0 0 8 7" fill="none" xmlns="http://www.w3.org/2000/svg">
<path d="M0 5.9967C0.861137 6.04529 1.61417 5.84345 2.34856 5.30893C1.60671 5.18185 1.09227 4.8417 0.812677 4.13899C1.02889 4.10908 1.21902 4.16515 1.44269 4.07544C0.712025 3.75399 0.238584 3.27181 0.219945 2.43827C0.451073 2.45696 0.626284 2.61021 0.902146 2.58778C0.23113 1.92992 0.0260951 1.21226 0.447344 0.341337C1.14818 1.14871 1.96832 1.69818 2.97111 1.95609C3.02703 1.97104 3.07922 1.98599 3.13513 1.9972C3.39236 2.05701 3.69804 2.18409 3.85461 2.16541C4.12302 2.13177 3.85462 1.82152 3.92172 1.41784C4.13421 0.161921 5.51352 -0.409969 6.53495 0.326386C6.83318 0.543181 7.06803 0.539443 7.36254 0.408619C7.51538 0.341337 7.67195 0.274056 7.85462 0.195561C7.81361 0.554395 7.53775 0.7525 7.3178 1.01789C7.56757 1.07395 7.76887 1.00294 8 0.928179C7.92172 1.18609 7.72787 1.33187 7.55266 1.4739C7.36999 1.61968 7.29916 1.77293 7.29171 2.01215C7.17987 5.63413 3.07549 8.43377 0.268409 6.20602C-0.00372514 5.98922 0.260951 6.20602 0 5.9967Z" fill="white"/>
</svg>
